<svg width="436" height="132" viewBox="0 0 436 132" fill="none" xmlns="http://www.w3.org/2000/svg">
<path d="M304.13 51.2079C304.13 68.0644 318.25 78.5723 337.424 78.5723H401.912C402.928 78.4959 403.949 78.6398 404.904 78.9942C405.86 79.3485 406.727 79.905 407.448 80.6256C408.168 81.3461 408.725 82.2137 409.079 83.1691C409.434 84.1245 409.577 85.1452 409.501 86.1614V97.1071C409.577 98.1233 409.434 99.1439 409.079 100.099C408.725 101.055 408.168 101.922 407.448 102.643C406.727 103.363 405.86 103.92 404.904 104.274C403.949 104.629 402.928 104.773 401.912 104.696H311.008V131.878H402.478C406.91 131.988 411.318 131.196 415.435 129.55C419.552 127.904 423.291 125.438 426.425 122.302C429.56 119.165 432.024 115.425 433.668 111.307C435.312 107.189 436.102 102.78 435.989 98.3477V86.362C436.104 81.9313 435.317 77.5234 433.675 73.4066C432.032 69.2898 429.57 65.5501 426.437 62.4152C423.303 59.2803 419.566 56.8156 415.45 55.1712C411.334 53.5268 406.927 52.7369 402.496 52.8498H338.372C337.356 52.9262 336.335 52.7823 335.38 52.428C334.425 52.0736 333.557 51.5171 332.836 50.7966C332.116 50.076 331.559 49.2083 331.205 48.2529C330.851 47.2975 330.707 46.2769 330.783 45.2607V32.1806C330.722 31.5016 330.81 30.8174 331.042 30.1763C331.274 29.5352 331.645 28.953 332.127 28.4709C332.609 27.9888 333.191 27.6185 333.832 27.3863C334.473 27.1542 335.157 27.0657 335.836 27.1274H425.226V0.000231287H348.588C343.715 -0.0241554 339.031 1.88082 335.558 5.29896C332.085 8.71709 330.106 13.3706 330.053 18.2431V25.8321C330.058 25.9926 330.032 26.1526 329.975 26.3027C329.918 26.4529 329.832 26.5903 329.721 26.7072C329.611 26.8241 329.479 26.9182 329.333 26.984C329.186 27.0499 329.028 27.0861 328.868 27.0909H328.776C325.53 26.8775 322.275 27.3509 319.223 28.4802C316.172 29.6095 313.393 31.3693 311.067 33.6449C308.742 35.9206 306.922 38.6608 305.727 41.687C304.531 44.7132 303.987 47.9574 304.13 51.2079ZM273.902 52.9046H230.265V61.0774C230.241 65.7045 232.054 70.152 235.307 73.4427C238.56 76.7334 242.987 78.5981 247.614 78.627H258.286V99.6976C258.281 101.039 257.745 102.325 256.794 103.272C255.843 104.219 254.556 104.751 253.214 104.751H187.084C186.087 104.751 185.1 104.555 184.18 104.173C183.259 103.792 182.422 103.233 181.718 102.528C181.013 101.823 180.454 100.987 180.072 100.066C179.691 99.1453 179.495 98.1584 179.495 97.1618V34.7711C179.492 33.7754 179.686 32.7889 180.066 31.8683C180.445 30.9477 181.003 30.1109 181.706 29.406C182.409 28.7011 183.244 28.1417 184.164 27.7601C185.084 27.3785 186.07 27.1821 187.066 27.1821H258.103V0.000231287H185.132C180.82 0.000231287 176.55 0.849584 172.566 2.49981C168.582 4.15003 164.962 6.56882 161.912 9.61804C155.754 15.7762 152.295 24.1284 152.295 32.8374V99.1503C152.295 107.859 155.754 116.212 161.912 122.37C164.962 125.419 168.582 127.838 172.566 129.488C176.55 131.138 180.82 131.988 185.132 131.988H240.171C242.61 131.985 245.024 131.502 247.276 130.567C249.528 129.631 251.574 128.261 253.297 126.535C255.02 124.809 256.386 122.76 257.317 120.506C258.248 118.252 258.726 115.837 258.724 113.398V106.101C258.716 105.939 258.741 105.777 258.797 105.625C258.853 105.472 258.939 105.333 259.049 105.214C259.159 105.095 259.292 104.999 259.44 104.932C259.588 104.865 259.747 104.829 259.91 104.824C274.65 104.404 284.136 97.2348 284.136 84.7566V52.9046H273.902Z" fill="#EA580C"/>
<path d="M33.3156 78.6817C14.1423 78.6817 0.0223377 68.1738 0.0223377 51.3174C-0.120558 48.0669 0.423366 44.8227 1.61861 41.7965C2.81385 38.7703 4.63357 36.03 6.9591 33.7544C9.28464 31.4788 12.0638 29.719 15.1152 28.5897C18.1666 27.4604 21.4218 26.987 24.6685 27.2004H24.7597C24.9202 27.1956 25.0783 27.1593 25.2248 27.0935C25.3712 27.0276 25.5034 26.9336 25.6135 26.8167C25.7236 26.6998 25.8096 26.5624 25.8666 26.4122C25.9236 26.262 25.9504 26.1021 25.9455 25.9416V18.3526C25.9985 13.4801 27.9775 8.82657 31.4503 5.40844C34.9232 1.9903 39.6076 0.0853258 44.4803 0.109712H121.119V27.2368H31.7285C31.0495 27.1752 30.3652 27.2636 29.7241 27.4958C29.0831 27.7279 28.5008 28.0982 28.0187 28.5804C27.5366 29.0625 27.1664 29.6447 26.9342 30.2858C26.702 30.9268 26.6136 31.6111 26.6752 32.2901V45.3702C26.5988 46.3864 26.7427 47.407 27.0971 48.3624C27.4514 49.3178 28.0079 50.1855 28.7284 50.9061C29.449 51.6266 30.3167 52.1831 31.2721 52.5374C32.2275 52.8918 33.2481 53.0357 34.2643 52.9593H98.388C102.819 52.8464 107.226 53.6362 111.342 55.2807C115.458 56.9251 119.196 59.3898 122.33 62.5247C125.463 65.6596 127.925 69.3993 129.568 73.5161C131.21 77.6329 131.997 82.0407 131.882 86.4715V98.4571C131.995 102.89 131.205 107.299 129.561 111.416C127.917 115.534 125.453 119.275 122.318 122.411C119.184 125.547 115.445 128.013 111.328 129.659C107.211 131.306 102.802 132.098 98.3698 131.988H6.89989V104.806H97.8042C98.8204 104.882 99.841 104.738 100.796 104.384C101.752 104.029 102.62 103.473 103.34 102.752C104.061 102.032 104.617 101.164 104.971 100.209C105.326 99.2534 105.47 98.2327 105.393 97.2166V86.2708C105.47 85.2547 105.326 84.234 104.971 83.2786C104.617 82.3232 104.061 81.4556 103.34 80.735C102.62 80.0145 101.752 79.458 100.796 79.1036C99.841 78.7492 98.8204 78.6053 97.8042 78.6817H33.3156Z" fill="#EA580C"/>
</svg>
